<?xml version="1.0" standalone="no"?>
<!DOCTYPE svg PUBLIC "-//W3C//DTD SVG 20010904//EN"
 "http://www.w3.org/TR/2001/REC-SVG-20010904/DTD/svg10.dtd">
<svg version="1.0" xmlns="http://www.w3.org/2000/svg"
 width="96.000000pt" height="96.000000pt" viewBox="0 0 96.000000 96.000000"
 preserveAspectRatio="xMidYMid meet">

<g transform="translate(0.000000,96.000000) scale(0.100000,-0.100000)"
fill="#000000" stroke="none">
<path d="M171 826 c-33 -18 -50 -53 -51 -104 0 -57 22 -97 61 -111 41 -14 177
-14 218 0 79 28 83 182 6 217 -36 16 -203 15 -234 -2z m218 -60 c7 -8 11 -34
9 -58 l-3 -43 -105 0 -105 0 -3 44 c-5 70 -4 71 101 71 70 0 98 -4 106 -14z"/>
<path d="M549 825 c-31 -17 -52 -62 -47 -101 2 -23 8 -29 28 -29 22 0 26 5 30
40 l5 40 94 3 c58 2 98 -1 107 -9 9 -7 14 -40 16 -97 3 -76 5 -87 22 -90 28
-6 36 15 36 101 0 88 -15 127 -55 145 -37 17 -203 15 -236 -3z"/>
<path d="M512 638 c-17 -17 -15 -152 3 -187 19 -38 60 -51 157 -51 97 0 140
16 158 59 11 28 11 34 -3 48 -18 18 -35 10 -48 -23 -9 -24 -11 -25 -111 -22
l-103 3 -3 80 c-3 94 -19 124 -50 93z"/>
<path d="M169 545 c-52 -28 -66 -130 -16 -123 17 2 23 11 27 38 l5 35 94 3
c59 2 98 -1 107 -9 9 -7 14 -41 16 -107 3 -86 5 -97 22 -100 29 -6 36 16 36
111 0 98 -13 136 -55 155 -37 17 -203 15 -236 -3z"/>
<path d="M127 374 c-4 -4 -7 -45 -7 -91 0 -139 26 -163 172 -163 97 0 140 16
158 59 11 28 11 34 -3 48 -18 18 -35 10 -48 -23 -9 -24 -11 -25 -111 -22
l-103 3 -5 95 c-5 86 -7 95 -25 98 -12 2 -24 0 -28 -4z"/>
<path d="M551 346 c-33 -18 -50 -53 -51 -104 0 -57 22 -97 61 -111 41 -14 177
-14 218 0 79 28 83 182 6 217 -36 16 -203 15 -234 -2z m218 -60 c7 -8 11 -34
9 -58 l-3 -43 -105 0 -105 0 -3 44 c-5 70 -4 71 101 71 70 0 98 -4 106 -14z"/>
</g>
</svg>
